<?xml version="1.0" encoding="UTF-8"?>
<svg id="Layer_2" xmlns="http://www.w3.org/2000/svg" version="1.1" viewBox="0 0 15 15">
  <!-- Generator: Adobe Illustrator 29.1.0, SVG Export Plug-In . SVG Version: 2.1.0 Build 142)  -->
  <defs>
    <style>
      .st0 {
        fill: #fff;
      }
    </style>
  </defs>
  <g id="Layer_1-2">
    <path class="st0" d="M7.5.5h0c.3,0,.6,0,.9,0,.4,0,.8.1,1.2.3,1.1.4,2.2,1,3,1.9.4.5.8,1,1.1,1.6.4.7.6,1.4.7,2.1,0,.3,0,.5,0,.8h0v.6h0c0,.2,0,.4,0,.5,0,.4-.1.8-.3,1.3-.4,1.1-1,2.1-1.9,3-.5.4-1,.8-1.5,1.1-.9.5-1.8.7-2.8.8,0,0,0,0-.2,0h-.6c0,0-.1,0-.2,0-.2,0-.4,0-.7,0-.6,0-1.1-.2-1.7-.5-1-.4-1.8-1-2.5-1.8-.8-.9-1.3-1.9-1.5-3-.1-.5-.2-1-.2-1.4h0v-.2c0-.2,0-.5,0-.7,0-.5.2-1,.3-1.5.4-1.1,1.1-2.1,2-2.9.9-.8,1.9-1.3,3-1.6.3,0,.6-.1.9-.2.2,0,.4,0,.6,0s0,0,0,0ZM8.2,10.7v2.4h0c0,.1,0,.1,0,.1.2,0,.4,0,.6-.1.9-.2,1.8-.7,2.5-1.3.6-.6,1.1-1.2,1.4-2,.2-.5.4-1,.4-1.5,0,0,0,0,0,0h-4.8c0,0,0,0,0,0v2.4h0ZM10.7,6.9h2.4q0,0,0,0c0-.1,0-.3,0-.4-.2-1.1-.7-2-1.4-2.8-.5-.5-1.1-1-1.8-1.3-.5-.2-1.1-.4-1.6-.5q0,0,0,0v4.8c0,0,0,.1,0,0h2.4ZM6.9,10.7v-2.4c0,0,0,0,0,0H1.9s0,0,0,0,0,0,0,.1c0,.6.3,1.2.5,1.7.5.9,1.2,1.7,2,2.3.6.4,1.3.7,2.1.8,0,0,.2,0,.3,0,0,0,0,0,0,0h0v-2.5h0ZM6.9,4.3V1.9h0c0-.1,0-.1,0-.1s0,0,0,0c-.4,0-.8.1-1.1.3-1.1.4-2,1.1-2.8,2.1-.5.7-.9,1.5-1,2.4,0,0,0,.1,0,.2s0,0,0,0h4.9c.1,0,.1,0,.1-.1v-2.4Z"/>
  </g>
</svg>