<?xml version="1.0" encoding="UTF-8"?>
<svg id="Layer_2" xmlns="http://www.w3.org/2000/svg" version="1.1" viewBox="0 0 15 15">
  <!-- Generator: Adobe Illustrator 29.1.0, SVG Export Plug-In . SVG Version: 2.1.0 Build 142)  -->
  <defs>
    <style>
      .st0 {
        fill: #fff;
      }
    </style>
  </defs>
  <g id="Layer_1-2">
    <path class="st0" d="M8.7,14.7h0v-2.7q0,0,0,0H2.6c0,0,0,0,0,0-.1-.4-.2-.8-.3-1.2,0,0,0,0,0,0,.4-.2.8-.6,1.1-.9.4-.4.6-.8.9-1.2.2-.5.4-1,.5-1.5,0-.2,0-.4,0-.6,0-.1,0-.2,0-.4,0-.7-.2-1.4-.5-2.1-.2-.5-.5-1-.9-1.4-.4-.4-.8-.7-1.2-1,0,0,0,0,0,0,.2-.4.4-.7.6-1.1,0,0,0,0,0,0,.4.2.8.6,1.2.9.5.5,1,1,1.3,1.7.3.6.6,1.2.7,1.9,0,.2,0,.5,0,.7,0,.2,0,.4,0,.6,0,.4,0,.8-.1,1.2-.2.9-.5,1.7-1.1,2.5-.2.2-.3.4-.5.6,0,0,0,0,0,0,0,0,0,0,0,0h4.2c.9,0,.9,0,0,0v-2.6h0c0,0,0,0,0,0h1.3c.3,0,.3,0,0,0v2.6h0s0,0,0,0h2.7v1.4h-2.7s0,0,0,0v2.7h-1.4Z"/>
  </g>
</svg>