<?xml version="1.0" encoding="UTF-8"?>
<svg id="Layer_2" xmlns="http://www.w3.org/2000/svg" version="1.1" viewBox="0 0 15 15">
  <!-- Generator: Adobe Illustrator 29.1.0, SVG Export Plug-In . SVG Version: 2.1.0 Build 142)  -->
  <defs>
    <style>
      .st0 {
        fill: #fff;
      }
    </style>
  </defs>
  <g id="Layer_1-2">
    <path class="st0" d="M11.6.5h2.9v2.9h-1.2s0,0,0,0h0v-.6s0,0,0,0c0,0,0,0,0,0-.8.8-1.6,1.6-2.4,2.4h0s0,0,0,.1c0,0,0,0,0,.1.4.6.8,1.2.9,1.9.1.5.2,1.1.2,1.6,0,.2,0,.5,0,.7-.1.6-.3,1.2-.6,1.8-.5.9-1.1,1.5-1.9,2.1-.8.6-1.8.9-2.8.9,0,0,0,0-.2,0h-.6c-.1,0-.3,0-.4,0-.3,0-.5,0-.8-.1-.9-.3-1.8-.7-2.5-1.4-.6-.5-1-1.1-1.3-1.9-.3-.6-.4-1.2-.5-1.9,0,0,0,0,0-.1v-.5s0,0,0,0c0-.2,0-.5,0-.7.2-1.1.7-2,1.4-2.8.6-.6,1.3-1.1,2.1-1.5.6-.2,1.2-.4,1.9-.4.3,0,.7,0,1,0,.4,0,.8.2,1.2.3.5.2,1,.5,1.5.8q0,0,0,0c.8-.8,1.6-1.6,2.4-2.4,0,0,0,0,0,0h-.6q0,0,0,0V.6s0,0,0,0ZM1.8,8.8c0,2.5,2,4.4,4.4,4.4s4.4-1.9,4.4-4.4-2-4.4-4.4-4.4S1.8,6.3,1.8,8.8h0Z"/>
  </g>
</svg>