<?xml version="1.0" encoding="UTF-8"?>
<svg id="Layer_2" xmlns="http://www.w3.org/2000/svg" version="1.1" viewBox="0 0 15 15">
  <!-- Generator: Adobe Illustrator 29.1.0, SVG Export Plug-In . SVG Version: 2.1.0 Build 142)  -->
  <defs>
    <style>
      .st0 {
        fill: #fff;
      }
    </style>
  </defs>
  <g id="Layer_1-2">
    <path class="st0" d="M11.1,6v.2h0c0,.2,0,.3,0,.4,0,.4-.2.8-.4,1.2-.5.9-1.3,1.5-2.3,1.7q0,0,0,0v1.4s0,0,0,0h2s0,0,0,0v1.3h0s0,0,0,0h-2s0,0,0,0v2h0c0,0-1.4,0-1.4,0h0v-2.1s0,0,0,0h-2s0,0,0,0v-1.3h0c0,0,0,0,0,0h2.1s0,0,0,0v-1.4s0,0,0,0c0,0,0,0-.1,0-.8-.2-1.4-.6-1.9-1.2-.5-.7-.8-1.5-.8-2.3,0-.2,0-.4,0-.7.2-.8.6-1.5,1.3-2t0,0c-.1-.1-.3-.2-.4-.4-.6-.7-.9-1.5-.9-2.4q0,0,0,0h1.3s0,0,0,0c0,0,0,.1,0,.2,0,.3.1.6.3.8.4.8,1.3,1.2,2.2,1.1.7-.1,1.3-.6,1.6-1.2.1-.3.2-.5.2-.8q0,0,0,0h1.4c0,.4,0,.6,0,.8-.2.8-.6,1.5-1.3,2t0,0c.5.4.9.9,1.2,1.6.1.3.2.7.2,1,0,0,0,0,0,.2h0ZM7.5,8.2c1.1,0,2.1-.9,2.1-2.1,0-1.2-1-2.1-2.1-2.1-1.2,0-2.2.9-2.2,2.1s1,2.1,2.1,2.1h0Z"/>
  </g>
</svg>