<?xml version="1.0" encoding="UTF-8"?><svg id="Livello_2" xmlns="http://www.w3.org/2000/svg" viewBox="0 0 574.14 97.81"><defs><style>.cls-1{fill:#fff;}</style></defs><g id="Vector_Logo"><path class="cls-1" d="M95.48,77.41c0,6-2.48,10.96-7.45,14.89-4.65,3.67-10.21,5.51-16.68,5.51-5.58,0-10.6-1.47-15.05-4.42-4.96-3.31-8.48-8.04-10.55-14.19-.41-1.24-2.3-7.96-5.66-20.17-3.05-11.06-5.71-19.73-7.99-25.98-3.15-8.53-5.71-12.67-7.68-12.41-1.29.31-2.2.84-2.71,1.59-.52.75-.78,1.8-.78,3.14v71.13H0V20.48c0-6.93,2.61-12.2,7.83-15.82C12.33,1.55,18.1,0,25.13,0c9.41,0,16.88,4.73,22.42,14.19,3.72,6.31,7.26,16.52,10.63,30.64,3.72,15.51,6.44,25.13,8.14,28.85.93,2.02,2.35,3.03,4.27,3.03,1.03,0,1.93-.41,2.68-1.24.75-.83,1.12-1.96,1.12-3.41V1.01h21.1v76.4Z"/><path class="cls-1" d="M197.71,96.49h-22.42l-24.74-72.91c-.16-.78-.7-1.16-1.63-1.16-.88,0-1.53.39-1.94,1.16l-24.2,72.91h-22.73c1.29-4.5,4.07-13.44,8.34-26.84,4.26-13.39,8.42-26.06,12.45-38.01,4.5-13.29,7.24-20.68,8.22-22.18,1.86-2.64,4.58-4.65,8.14-6.05,3.57-1.4,7.45-2.09,11.63-2.09s8.05.7,11.6,2.09c3.54,1.4,6.24,3.41,8.11,6.05,1.14,1.55,3.93,8.89,8.38,22.03,2.74,8.07,6.83,20.74,12.26,38.01,3.31,10.5,6.15,19.5,8.53,26.99Z"/><path class="cls-1" d="M282.03,21.8h-50.42c-2.28,0-4.07.86-5.39,2.59-1.32,1.72-1.98,3.74-1.98,6.06s.63,4.2,1.9,5.79c1.27,1.6,3.09,2.39,5.47,2.39h29.71c8.01,0,14.35,3,19,9,4.19,5.38,6.28,12.02,6.28,19.93s-2.09,14.5-6.28,19.93c-4.65,6-10.99,9-19,9h-54.06v-20.17h50.65c2.17,0,3.88-.89,5.12-2.68,1.24-1.78,1.86-3.84,1.86-6.17s-.6-4.3-1.78-5.93c-1.19-1.63-2.92-2.44-5.2-2.44h-29.78c-8.07,0-14.45-2.97-19.16-8.91-4.24-5.32-6.36-11.9-6.36-19.75s2.12-14.3,6.36-19.68c4.76-5.99,11.14-8.98,19.16-8.98h53.91v20.01Z"/><path class="cls-1" d="M384.26,96.49h-22.42l-24.74-72.91c-.16-.78-.7-1.16-1.63-1.16-.88,0-1.53.39-1.94,1.16l-24.2,72.91h-22.73c1.29-4.5,4.07-13.44,8.34-26.84,4.26-13.39,8.42-26.06,12.45-38.01,4.5-13.29,7.24-20.68,8.22-22.18,1.86-2.64,4.58-4.65,8.14-6.05s7.45-2.09,11.63-2.09,8.05.7,11.6,2.09c3.54,1.4,6.24,3.41,8.11,6.05,1.14,1.55,3.93,8.89,8.38,22.03,2.74,8.07,6.83,20.74,12.26,38.01,3.31,10.5,6.15,19.5,8.53,26.99Z"/><path class="cls-1" d="M468.34,97.11h-20.94v-44.44c0-7.96-1.68-14.71-5.05-20.24-3.83-6.31-9.17-9.46-16-9.46h-37.9V2.4h37.85c11.95,0,21.41,3,28.39,9,5.48,4.71,9.36,11.12,11.63,19.24,1.5,5.33,2.25,11.12,2.25,17.37,0,1.45-.01,2.47-.04,3.06-.03.59-.09,1.12-.19,1.59v44.44Z"/><path class="cls-1" d="M539.15,96.49h-30.95c-11.12,0-19.88-4.83-26.29-14.49-5.79-8.68-8.69-19.38-8.69-32.09s2.95-23.92,8.84-33.02c6.52-10.07,15.23-15.11,26.14-15.11h30.95c10.91,0,19.62,5.04,26.14,15.11,5.89,9.09,8.84,20.12,8.84,33.09s-2.87,23.38-8.61,32.01c-6.41,9.66-15.2,14.49-26.37,14.49ZM535.66,75.94c4.96,0,8.95-2.89,11.95-8.67,2.74-5.27,4.11-11.62,4.11-19.05s-1.32-13.3-3.96-18.2c-2.95-5.47-6.98-8.21-12.1-8.21h-23.97c-5.12,0-9.15,2.74-12.1,8.21-2.64,4.91-3.96,10.97-3.96,18.2s1.34,13.84,4.03,19.05c3,5.78,7.01,8.67,12.02,8.67h23.97Z"/></g></svg>