<?xml version="1.0" encoding="UTF-8"?>
<svg id="Layer_2" xmlns="http://www.w3.org/2000/svg" version="1.1" viewBox="0 0 15 15">
  <!-- Generator: Adobe Illustrator 29.1.0, SVG Export Plug-In . SVG Version: 2.1.0 Build 142)  -->
  <defs>
    <style>
      .st0 {
        fill: #fff;
      }
    </style>
  </defs>
  <g id="Layer_1-2">
    <path class="st0" d="M1.5.5h1.4s0,0,0,0c0,.6.1,1.3.4,1.9.2.5.5.9.8,1.3.5.6,1.2,1,1.9,1.2.2,0,.4.1.6.2,0,0,0,0,0,0h0V.5s0,0,0,0h1.3s0,0,0,0v4.4q0,0,0,0c.8-.1,1.5-.5,2.2-1,.5-.4.9-.9,1.2-1.5.2-.4.3-.8.4-1.2,0-.2,0-.4,0-.6v-.2s0,0,0,0h1.3q0,0,0,0c0,.5,0,.9-.2,1.4-.2.8-.5,1.5-1,2.1-.5.7-1.2,1.3-1.9,1.7-.5.3-1.1.5-1.7.6-.1,0-.3,0-.4,0,0,0,0,0,0,0v2c0,.5,0,.5,0,0h2.7s0,0,0,0v1.3s0,0,0,0h-2.7s0,0,0,0h0v4.5h0c0,0-1.4,0-1.4,0h0v-4.5h0c0,0,0,0,0,0h-2.7s0,0,0,0v-1.3s0,0,0,0h2.7s0,0,0,0v-2s0,0,0,0c-.2,0-.5,0-.7-.1-.5-.1-1-.3-1.4-.6-.7-.4-1.3-.9-1.8-1.5-.4-.6-.8-1.2-1-1.9-.2-.5-.3-1-.3-1.5v-.4Z"/>
  </g>
</svg>