<?xml version="1.0" encoding="UTF-8"?>
<svg id="Layer_2" xmlns="http://www.w3.org/2000/svg" version="1.1" viewBox="0 0 15 15">
  <!-- Generator: Adobe Illustrator 29.1.0, SVG Export Plug-In . SVG Version: 2.1.0 Build 142)  -->
  <defs>
    <style>
      .st0 {
        fill: #fff;
      }
    </style>
  </defs>
  <g id="Layer_1-2">
    <path class="st0" d="M3,2.6h2s0,0,0,0V.6s0,0,0,0h1.3s0,0,0,0v2s0,0,0,0h2s0,0,0,0v1.3s0,0,0,0h-2s0,0,0,0v1.6h0s0,0,0,0h0c.4-.3.9-.5,1.5-.6.2,0,.3,0,.5,0,.4,0,.9,0,1.3.2.4.2.8.4,1.1.7.4.3.6.7.9,1.2.1.3.2.6.3,1,0,.2,0,.4,0,.6,0,.5-.1.9-.3,1.4-.2.4-.4.7-.7,1-.2.2-.4.4-.5.6-.3.3-.5.6-.8,1-.2.4-.4.8-.4,1.2,0,.2,0,.4,0,.6v.2h-1.4c0-.2,0-.4,0-.6,0-.4.1-.8.2-1.2.2-.4.4-.9.7-1.3.2-.3.5-.6.8-.9.2-.2.3-.3.5-.5.3-.3.5-.7.6-1.2,0-.6,0-1.2-.5-1.7-.3-.4-.7-.6-1.2-.7-.7-.1-1.2,0-1.7.5-.4.3-.6.7-.7,1.2,0,.1,0,.2,0,.3s0,0,0,0h-1.3s0,0,0,0v-4.4s0,0,0,0h-2v-1.4h0Z"/>
  </g>
</svg>