<?xml version="1.0" encoding="UTF-8"?><svg id="Livello_2" xmlns="http://www.w3.org/2000/svg" viewBox="0 0 1649.15 1649.15"><g id="Vector_Logo"><path d="M824.57,1649.15c-111.28,0-219.28-21.81-320.98-64.83-98.2-41.53-186.38-100.98-262.08-176.68s-135.15-163.88-176.68-262.08C21.81,1043.85,0,935.86,0,824.58s21.81-219.28,64.83-320.98c41.53-98.2,100.98-186.38,176.68-262.08S405.39,106.36,503.59,64.83C605.3,21.81,713.29,0,824.57,0s219.28,21.81,320.98,64.83c98.2,41.53,186.38,100.98,262.08,176.68s135.15,163.88,176.68,262.08c43.02,101.71,64.83,209.7,64.83,320.98s-21.81,219.28-64.83,320.98c-41.53,98.2-100.98,186.38-176.68,262.08s-163.88,135.15-262.08,176.68c-101.71,43.02-209.7,64.83-320.98,64.83ZM824.57,150c-91.1,0-179.43,17.83-262.55,52.98-80.32,33.97-152.47,82.62-214.44,144.6s-110.62,134.12-144.6,214.44c-35.16,83.12-52.98,171.45-52.98,262.55s17.83,179.44,52.98,262.55c33.97,80.32,82.62,152.47,144.6,214.44,61.98,61.98,134.13,110.62,214.44,144.6,83.12,35.16,171.45,52.98,262.55,52.98s179.44-17.83,262.55-52.98c80.32-33.97,152.47-82.62,214.44-144.6s110.63-134.13,144.6-214.44c35.16-83.12,52.98-171.45,52.98-262.55s-17.83-179.44-52.98-262.55c-33.97-80.32-82.62-152.47-144.6-214.44-61.98-61.98-134.12-110.63-214.44-144.6-83.12-35.16-171.45-52.98-262.55-52.98Z"/><circle cx="824.57" cy="824.57" r="327.67"/></g></svg>