<?xml version="1.0" encoding="UTF-8"?>
<svg id="Layer_2" xmlns="http://www.w3.org/2000/svg" version="1.1" viewBox="0 0 15 15">
  <!-- Generator: Adobe Illustrator 29.1.0, SVG Export Plug-In . SVG Version: 2.1.0 Build 142)  -->
  <defs>
    <style>
      .st0 {
        fill: #fff;
      }
    </style>
  </defs>
  <g id="Layer_1-2">
    <g>
      <path class="st0" d="M7.4.4h.2c.2,0,.4,0,.6,0,.4,0,.8.1,1.1.2,1.4.4,2.6,1.2,3.6,2.3.9,1.1,1.5,2.5,1.6,4,0,.4,0,.8,0,1.1,0,.4,0,.7-.2,1.1-.3,1.2-.9,2.2-1.7,3.1-1.3,1.4-2.9,2.1-4.8,2.3-.4,0-.8,0-1.3,0-.4,0-.8-.1-1.2-.2-1-.3-1.9-.8-2.7-1.5-1-.9-1.7-2-2.1-3.3-.2-.5-.2-1.1-.3-1.6,0,0,0-.2,0-.3H.4c0-.1,0-.2,0-.2,0-.2,0-.4,0-.6,0-.4.1-.8.2-1.1C1.3,3.3,3,1.6,5.2.8c.5-.2,1-.3,1.5-.3.2,0,.4,0,.7,0h0ZM7.5,13.3c3.2,0,5.8-2.6,5.8-5.8S10.7,1.7,7.5,1.7C4.3,1.7,1.7,4.3,1.7,7.5s2.6,5.8,5.8,5.8h0Z"/>
      <path class="st0" d="M7.5,9.3c-1,0-1.8-.8-1.8-1.8,0-1,.8-1.8,1.8-1.8,1,0,1.8.8,1.8,1.8s-.8,1.8-1.8,1.8h0Z"/>
    </g>
  </g>
</svg>