<?xml version="1.0" encoding="UTF-8"?><svg id="Livello_2" xmlns="http://www.w3.org/2000/svg" viewBox="0 0 2448.9 1179.53"><defs><style>.cls-1{stroke:#929292;stroke-miterlimit:10;stroke-width:3px;}.cls-1,.cls-2{fill:#fff;}</style></defs><g id="Vector_Logo"><path class="cls-2" d="M321.5,358.1l-224.38-88.78v88.7H19.5v-118.17c0-28.4,7-51.35,21.01-68.86,16.34-20.42,40.36-30.64,72.07-30.64h96.58c8.95,0,15.85-3.05,20.72-9.15,4.86-6.1,7.29-13.31,7.29-21.64,0-8.9-2.33-16.36-7-22.36-5.25-6.77-12.25-10.17-21.01-10.17H19.5V1.75h202.79c30.35,0,54.36,11.17,72.07,33.51,15.95,20.21,23.93,44.97,23.93,74.31s-7.98,53.81-23.93,74.01c-17.71,22.53-41.73,33.8-72.07,33.8h-49.02l148.23,56.64v84.08Z"/><path class="cls-2" d="M704.61,358.02h-84.33l-93.08-274.28c-.58-2.92-2.63-4.38-6.13-4.38-3.31,0-5.74,1.46-7.29,4.38l-91.04,274.28h-85.49c4.86-16.92,15.31-50.57,31.37-100.96,16.04-50.38,31.65-98.04,46.83-142.97,16.92-49.99,27.23-77.81,30.93-83.45,7-9.92,17.22-17.51,30.64-22.76,13.42-5.25,28.01-7.88,43.77-7.88s30.3,2.63,43.62,7.88c13.32,5.25,23.49,12.84,30.5,22.76,4.28,5.84,14.78,33.46,31.51,82.87,10.3,30.35,25.68,78.01,46.1,142.97,12.45,39.49,23.14,73.34,32.1,101.54Z"/><path class="cls-2" d="M926.95,217.38h-75.86c-19.46,0-33.36,6.52-41.73,19.55-5.64,8.95-8.46,20.13-8.46,33.56,0,4.86.04,7.78.15,8.75.09.98.33,1.95.73,2.92v75.86h-77.61v-118.17c0-28.4,7-51.35,21.01-68.86,16.34-20.42,40.36-30.64,72.07-30.64h96.58c8.95,0,15.85-3.05,20.72-9.15,4.86-6.1,7.29-13.31,7.29-21.64,0-8.9-2.33-16.36-7-22.36-5.25-6.77-12.25-10.17-21.01-10.17h-189.66V1.75h202.79c30.35,0,54.36,11.17,72.07,33.51,15.95,20.21,23.93,44.97,23.93,74.31s-7.98,53.81-23.93,74.01c-17.71,22.53-41.73,33.8-72.07,33.8Z"/><path class="cls-2" d="M1259.88,217.38h-75.86c-19.46,0-33.36,6.52-41.73,19.55-5.64,8.95-8.46,20.13-8.46,33.56,0,4.86.04,7.78.15,8.75.09.98.33,1.95.73,2.92v75.86h-77.61v-118.17c0-28.4,7-51.35,21.01-68.86,16.34-20.42,40.36-30.64,72.07-30.64h96.58c8.95,0,15.85-3.05,20.72-9.15,4.86-6.1,7.29-13.31,7.29-21.64,0-8.9-2.33-16.36-7-22.36-5.25-6.77-12.26-10.17-21.01-10.17h-189.66V1.75h202.79c30.35,0,54.36,11.17,72.07,33.51,15.95,20.21,23.93,44.97,23.93,74.31s-7.98,53.81-23.93,74.01c-17.71,22.53-41.73,33.8-72.07,33.8Z"/><path class="cls-2" d="M1620.23,358.02h-116.42c-41.83,0-74.8-18.17-98.92-54.52-21.79-32.65-32.68-72.89-32.68-120.7s11.09-89.98,33.26-124.2c24.51-37.9,57.28-56.85,98.33-56.85h116.42c41.04,0,73.82,18.95,98.33,56.85,22.18,34.21,33.26,75.71,33.26,124.49s-10.8,87.96-32.39,120.41c-24.13,36.34-57.19,54.52-99.21,54.52ZM1607.1,280.7c18.67,0,33.65-10.88,44.93-32.63,10.3-19.81,15.46-43.7,15.46-71.67s-4.96-50.02-14.88-68.47c-11.09-20.59-26.26-30.88-45.52-30.88h-90.16c-19.26,0-34.43,10.3-45.52,30.88-9.92,18.46-14.88,41.28-14.88,68.47s5.05,52.06,15.17,71.67c11.28,21.75,26.35,32.63,45.23,32.63h90.16Z"/><path class="cls-2" d="M2079.21,358.1l-224.38-88.78v88.7h-77.61v-118.17c0-28.4,7-51.35,21.01-68.86,16.34-20.42,40.36-30.64,72.07-30.64h96.58c8.95,0,15.85-3.05,20.72-9.15,4.86-6.1,7.29-13.31,7.29-21.64,0-8.9-2.33-16.36-7-22.36-5.25-6.77-12.26-10.17-21.01-10.17h-189.66V1.75h202.79c30.35,0,54.36,11.17,72.07,33.51,15.95,20.21,23.93,44.97,23.93,74.31s-7.98,53.81-23.93,74.01c-17.71,22.53-41.73,33.8-72.07,33.8h-49.02l148.23,56.64v84.08Z"/><path class="cls-2" d="M2346.49,77.03h-80.53v280.99h-77.91V77.03h-80.24V1.75h238.68v75.28Z"/><path class="cls-2" d="M2448.9,358.02h-78.78V1.46h78.78v356.56Z"/><path class="cls-2" d="M378.69,775.2c0,22.57-9.34,41.24-28.01,56.02-17.51,13.81-38.42,20.72-62.73,20.72-21.01,0-39.88-5.54-56.61-16.63-18.67-12.45-31.9-30.25-39.68-53.4-1.56-4.67-8.66-29.95-21.3-75.86-11.48-41.63-21.5-74.21-30.05-97.75-11.87-32.1-21.5-47.66-28.89-46.69-4.87,1.17-8.27,3.16-10.21,5.98-1.95,2.82-2.92,6.76-2.92,11.82v267.57H19.5v-285.95c0-26.06,9.82-45.91,29.47-59.52,16.92-11.67,38.61-17.51,65.07-17.51,35.4,0,63.51,17.8,84.33,53.4,14.01,23.73,27.33,62.15,39.97,115.26,14.01,58.36,24.22,94.54,30.64,108.54,3.5,7.59,8.85,11.38,16.05,11.38,3.88,0,7.24-1.55,10.07-4.67,2.81-3.11,4.23-7.39,4.23-12.84v-267.28h79.37v287.41Z"/><path class="cls-2" d="M770.15,846.97h-84.33l-93.08-274.28c-.58-2.92-2.63-4.38-6.13-4.38-3.31,0-5.74,1.46-7.29,4.38l-91.04,274.28h-85.49c4.86-16.92,15.31-50.57,31.37-100.96,16.04-50.38,31.65-98.04,46.83-142.97,16.92-49.99,27.23-77.81,30.93-83.45,7-9.92,17.22-17.51,30.64-22.76,13.42-5.25,28.01-7.88,43.77-7.88s30.3,2.63,43.62,7.88c13.32,5.25,23.49,12.84,30.5,22.76,4.28,5.84,14.78,33.46,31.51,82.87,10.3,30.35,25.68,78.01,46.1,142.97,12.45,39.49,23.14,73.34,32.1,101.54Z"/><path class="cls-2" d="M979.87,565.99h-80.53v280.99h-77.91v-280.99h-80.24v-75.28h238.68v75.28Z"/><path class="cls-2" d="M1303.46,719.28c0,41.2-15.96,74.06-47.85,98.55-28.8,22.15-64,33.23-105.63,33.23s-74.51-10.88-102.12-32.65c-30.93-24.3-46.39-57.34-46.39-99.13v-228.57h77.32v215.69c0,18.66,7.97,33.62,23.93,44.89,14.59,10.3,32.19,15.45,52.81,15.45s36.56-4.96,50.19-14.87c15.17-11.07,22.76-26.23,22.76-45.47v-215.69h74.99v228.57Z"/><path class="cls-2" d="M1641.06,847.05l-224.38-88.78v88.7h-77.61v-118.17c0-28.4,7-51.35,21.01-68.86,16.34-20.43,40.36-30.64,72.07-30.64h96.58c8.95,0,15.85-3.05,20.72-9.15,4.86-6.1,7.29-13.31,7.29-21.64,0-8.9-2.33-16.36-7-22.36-5.25-6.77-12.25-10.17-21.01-10.17h-189.66v-75.28h202.79c30.35,0,54.36,11.17,72.07,33.51,15.95,20.21,23.93,44.97,23.93,74.31s-7.98,53.81-23.93,74.01c-17.71,22.53-41.73,33.8-72.07,33.8h-49.02l148.23,56.64v84.08Z"/><path class="cls-2" d="M2024.17,846.97h-84.33l-93.08-274.28c-.58-2.92-2.63-4.38-6.13-4.38-3.31,0-5.74,1.46-7.29,4.38l-91.04,274.28h-85.49c4.86-16.92,15.31-50.57,31.37-100.96,16.04-50.38,31.65-98.04,46.83-142.97,16.92-49.99,27.23-77.81,30.93-83.45,7-9.92,17.22-17.51,30.64-22.76,13.42-5.25,28.01-7.88,43.77-7.88s30.3,2.63,43.62,7.88c13.32,5.25,23.49,12.84,30.5,22.76,4.28,5.84,14.78,33.46,31.51,82.87,10.3,30.35,25.68,78.01,46.1,142.97,12.45,39.49,23.14,73.34,32.1,101.54Z"/><path class="cls-2" d="M2341.34,846.97h-142.1c-44.93,0-80.53-11.27-106.79-33.82-20.62-17.69-35.21-41.79-43.77-72.3-5.64-20.02-8.46-41.79-8.46-65.31,0-5.44.04-9.28.14-11.52s.34-4.23.73-5.98v-167.35h78.78v167.31c0,30.12,6.32,55.48,18.97,76.08,14.59,23.71,34.72,35.56,60.4,35.56h142.1v77.32Z"/><path class="cls-2" d="M2448.9,846.97h-78.78v-356.56h78.78v356.56Z"/><path class="cls-2" d="M291.62,1082.25h-50.94c-2.3,0-4.11.87-5.45,2.61-1.33,1.74-2,3.78-2,6.12s.64,4.24,1.92,5.85c1.28,1.61,3.12,2.42,5.52,2.42h30.02c8.1,0,14.5,3.03,19.2,9.09,4.23,5.43,6.35,12.15,6.35,20.14s-2.12,14.66-6.35,20.14c-4.7,6.06-11.1,9.09-19.2,9.09h-54.62v-20.38h51.18c2.19,0,3.92-.9,5.17-2.7,1.25-1.8,1.88-3.88,1.88-6.23s-.6-4.35-1.8-6c-1.2-1.65-2.95-2.47-5.25-2.47h-30.09c-8.15,0-14.6-3-19.36-9-4.28-5.37-6.43-12.03-6.43-19.96s2.14-14.45,6.43-19.88c4.81-6.05,11.26-9.08,19.36-9.08h54.47v20.22Z"/><path class="cls-2" d="M321.56,1157.72h-21.16v-95.69h21.16v95.69Z"/><path class="cls-2" d="M410.98,1082.25h-50.94c-2.3,0-4.11.87-5.45,2.61-1.33,1.74-2,3.78-2,6.12s.64,4.24,1.92,5.85c1.28,1.61,3.12,2.42,5.52,2.42h30.02c8.1,0,14.5,3.03,19.2,9.09,4.23,5.43,6.35,12.15,6.35,20.14s-2.12,14.66-6.35,20.14c-4.7,6.06-11.1,9.09-19.2,9.09h-54.62v-20.38h51.18c2.19,0,3.92-.9,5.17-2.7,1.25-1.8,1.88-3.88,1.88-6.23s-.6-4.35-1.8-6c-1.2-1.65-2.95-2.47-5.25-2.47h-30.09c-8.15,0-14.6-3-19.36-9-4.28-5.37-6.43-12.03-6.43-19.96s2.14-14.45,6.43-19.88c4.81-6.05,11.26-9.08,19.36-9.08h54.47v20.22Z"/><path class="cls-2" d="M480.73,1082.25h-21.63v75.47h-20.92v-75.47h-21.55v-20.22h64.11v20.22Z"/><path class="cls-2" d="M567.72,1157.72h-54.47c-8.15,0-14.6-3.06-19.36-9.17-4.28-5.49-6.43-12.23-6.43-20.22,0-7.21,1.8-13.45,5.41-18.73-3.6-5.27-5.41-11.45-5.41-18.54,0-7.82,2.14-14.47,6.43-19.95,4.75-6.05,11.21-9.08,19.36-9.08h54.47v20.22h-50.94c-2.3,0-4.11.87-5.45,2.61-1.33,1.74-2,3.78-2,6.12s.64,4.24,1.92,5.85c1.28,1.61,3.12,2.42,5.52,2.42h50.94v20.69h-53.84c-1.41.63-2.52,1.72-3.33,3.29-.81,1.57-1.21,3.29-1.21,5.17,0,2.35.64,4.39,1.92,6.11,1.28,1.72,3.12,2.59,5.52,2.59h50.94v20.61Z"/><path class="cls-2" d="M723.83,1157.72h-21.79c-1.72-6.69-3.42-13.37-5.09-20.06-4.08-15.52-7.65-27.87-10.74-37.07-4.39-13.27-7.6-19.78-9.64-19.51-1.41.31-2.36.85-2.86,1.61-.5.76-.74,1.82-.74,3.17v52.59c0,6.06-2.51,11.08-7.52,15.05-4.7,3.71-10.32,5.56-16.85,5.56-5.64,0-10.71-1.49-15.2-4.47-5.02-3.34-8.57-8.12-10.66-14.34-.42-1.25-2.33-8.04-5.72-20.38-3.08-11.18-5.77-19.93-8.07-26.25-3.19-8.62-5.77-12.8-7.76-12.54-1.31.31-2.22.85-2.74,1.61-.52.76-.78,1.82-.78,3.17v71.86h-21.16v-76.8c0-7,2.64-12.33,7.92-15.99,4.55-3.13,10.37-4.7,17.48-4.7,9.51,0,17.06,4.78,22.65,14.34,3.76,6.38,7.34,16.69,10.74,30.96,3.76,15.67,6.5,25.39,8.23,29.15.52,1.2,1.27,2.14,2.23,2.82.97.68,1.97,1.02,3.02,1.02.94,0,1.68-.31,2.23-.94.55-.63.82-1.59.82-2.9v-53.76c0-7,2.64-12.33,7.92-15.99,4.55-3.13,10.37-4.7,17.48-4.7,5.8,0,10.92,2.04,15.36,6.11,4.75,4.39,8.36,10.89,10.82,19.51l20.45,71.86Z"/><path class="cls-2" d="M817.56,1157.72h-22.65l-25-73.67c-.16-.78-.71-1.18-1.65-1.18-.89,0-1.54.39-1.96,1.18l-24.45,73.67h-22.96c1.31-4.55,4.11-13.58,8.42-27.12,4.31-13.53,8.5-26.33,12.58-38.4,4.55-13.43,7.31-20.9,8.31-22.41,1.88-2.66,4.62-4.7,8.23-6.11,3.6-1.41,7.52-2.12,11.76-2.12s8.14.71,11.72,2.12c3.58,1.41,6.31,3.45,8.19,6.11,1.15,1.57,3.97,8.99,8.46,22.26,2.77,8.15,6.9,20.95,12.38,38.4,3.34,10.61,6.22,19.7,8.62,27.27Z"/><path class="cls-2" d="M949.93,1082.25h-50.94c-2.3,0-4.11.87-5.45,2.61-1.33,1.74-2,3.78-2,6.12s.64,4.24,1.92,5.85c1.28,1.61,3.12,2.42,5.52,2.42h30.02c8.1,0,14.5,3.03,19.2,9.09,4.23,5.43,6.35,12.15,6.35,20.14s-2.12,14.66-6.35,20.14c-4.7,6.06-11.1,9.09-19.2,9.09h-54.62v-20.38h51.18c2.19,0,3.92-.9,5.17-2.7,1.25-1.8,1.88-3.88,1.88-6.23s-.6-4.35-1.8-6c-1.2-1.65-2.95-2.47-5.25-2.47h-30.09c-8.15,0-14.6-3-19.36-9-4.28-5.37-6.43-12.03-6.43-19.96s2.14-14.45,6.43-19.88c4.81-6.05,11.26-9.08,19.36-9.08h54.47v20.22Z"/><path class="cls-2" d="M1021.25,1157.72h-31.27c-11.23,0-20.09-4.88-26.57-14.64-5.85-8.77-8.78-19.58-8.78-32.42s2.98-24.17,8.93-33.36c6.58-10.18,15.39-15.27,26.41-15.27h31.27c11.02,0,19.83,5.09,26.41,15.27,5.96,9.19,8.93,20.33,8.93,33.44s-2.9,23.62-8.7,32.34c-6.48,9.76-15.36,14.64-26.65,14.64ZM1017.72,1136.96c5.02,0,9.04-2.92,12.07-8.77,2.77-5.32,4.15-11.74,4.15-19.25s-1.33-13.43-4-18.39c-2.98-5.53-7.05-8.29-12.23-8.29h-24.22c-5.17,0-9.25,2.76-12.23,8.29-2.66,4.96-4,11.09-4,18.39s1.36,13.98,4.08,19.25c3.03,5.84,7.08,8.77,12.15,8.77h24.22Z"/><path class="cls-2" d="M1143.35,1157.72h-38.17c-12.07,0-21.63-3.03-28.68-9.08-5.54-4.75-9.46-11.22-11.76-19.42-1.52-5.38-2.27-11.22-2.27-17.54,0-1.46.01-2.49.04-3.09.03-.6.09-1.14.2-1.61v-44.95h21.16v44.94c0,8.09,1.7,14.9,5.09,20.43,3.92,6.37,9.33,9.55,16.22,9.55h38.17v20.77Z"/><path class="cls-2" d="M1246.64,1157.72h-22.65l-25-73.67c-.16-.78-.71-1.18-1.65-1.18-.89,0-1.54.39-1.96,1.18l-24.45,73.67h-22.96c1.31-4.55,4.11-13.58,8.43-27.12,4.31-13.53,8.5-26.33,12.58-38.4,4.55-13.43,7.31-20.9,8.31-22.41,1.88-2.66,4.62-4.7,8.23-6.11,3.6-1.41,7.52-2.12,11.76-2.12s8.14.71,11.72,2.12c3.58,1.41,6.31,3.45,8.19,6.11,1.15,1.57,3.97,8.99,8.46,22.26,2.77,8.15,6.9,20.95,12.38,38.4,3.34,10.61,6.22,19.7,8.62,27.27Z"/><path class="cls-2" d="M1333,1157.74l-60.27-23.84v23.82h-20.85v-31.74c0-7.63,1.88-13.79,5.64-18.5,4.39-5.49,10.84-8.23,19.36-8.23h25.94c2.4,0,4.26-.82,5.56-2.46,1.31-1.64,1.96-3.58,1.96-5.81,0-2.39-.63-4.39-1.88-6.01-1.41-1.82-3.29-2.73-5.64-2.73h-50.94v-20.22h54.47c8.15,0,14.6,3,19.36,9,4.28,5.43,6.43,12.08,6.43,19.96s-2.14,14.45-6.43,19.88c-4.75,6.05-11.21,9.08-19.36,9.08h-13.17l39.81,15.21v22.58Z"/><path class="cls-2" d="M1422.03,1157.72h-54.47c-8.15,0-14.6-3.06-19.36-9.17-4.28-5.49-6.43-12.23-6.43-20.22,0-7.21,1.8-13.45,5.41-18.73-3.61-5.27-5.41-11.45-5.41-18.54,0-7.82,2.14-14.47,6.43-19.95,4.75-6.05,11.21-9.08,19.36-9.08h54.47v20.22h-50.94c-2.3,0-4.11.87-5.45,2.61-1.33,1.74-2,3.78-2,6.12s.64,4.24,1.92,5.85c1.28,1.61,3.12,2.42,5.52,2.42h50.94v20.69h-53.84c-1.41.63-2.52,1.72-3.33,3.29-.81,1.57-1.21,3.29-1.21,5.17,0,2.35.64,4.39,1.92,6.11,1.28,1.72,3.12,2.59,5.52,2.59h50.94v20.61Z"/><path class="cls-1" d="M70.63,1158.54c-27.38,0-49.65-22.27-49.65-49.65s22.27-49.65,49.65-49.65,49.65,22.27,49.65,49.65-22.27,49.65-49.65,49.65ZM70.63,1069.24c-21.87,0-39.66,17.79-39.66,39.66s17.79,39.66,39.66,39.66,39.66-17.79,39.66-39.66-17.79-39.66-39.66-39.66Z"/><rect class="cls-1" x="90.81" y="1103.9" width="48.95" height="9.99"/><rect class="cls-1" x="65.63" y="1039.77" width="9.99" height="48.95"/><rect class="cls-1" x="65.63" y="1129.08" width="9.99" height="48.95"/><rect class="cls-1" x="1.5" y="1103.9" width="48.95" height="9.99"/><path class="cls-2" d="M1970.25,1138.38c0,6-2.48,10.96-7.45,14.89-4.65,3.67-10.21,5.51-16.68,5.51-5.58,0-10.6-1.47-15.05-4.42-4.96-3.31-8.48-8.04-10.55-14.19-.41-1.24-2.3-7.96-5.66-20.17-3.05-11.06-5.71-19.73-7.99-25.98-3.15-8.53-5.71-12.67-7.68-12.41-1.29.31-2.2.84-2.71,1.59-.52.75-.78,1.8-.78,3.14v71.13h-20.94v-76.01c0-6.93,2.61-12.2,7.83-15.82,4.5-3.1,10.26-4.65,17.3-4.65,9.41,0,16.88,4.73,22.42,14.19,3.72,6.31,7.26,16.52,10.63,30.64,3.72,15.51,6.44,25.13,8.14,28.85.93,2.02,2.35,3.03,4.27,3.03,1.03,0,1.93-.41,2.68-1.24.75-.83,1.12-1.96,1.12-3.41v-71.05h21.1v76.4Z"/><path class="cls-2" d="M2072.48,1157.46h-22.42l-24.74-72.91c-.16-.78-.7-1.16-1.63-1.16-.88,0-1.53.39-1.94,1.16l-24.2,72.91h-22.73c1.29-4.5,4.07-13.44,8.34-26.84,4.26-13.39,8.42-26.06,12.45-38.01,4.5-13.29,7.24-20.68,8.22-22.18,1.86-2.64,4.58-4.65,8.14-6.05,3.57-1.4,7.45-2.09,11.63-2.09s8.05.7,11.6,2.09c3.54,1.4,6.24,3.41,8.11,6.05,1.14,1.55,3.93,8.89,8.38,22.03,2.74,8.07,6.83,20.74,12.26,38.01,3.31,10.5,6.15,19.5,8.53,26.99Z"/><path class="cls-2" d="M2156.79,1082.77h-50.42c-2.28,0-4.07.86-5.39,2.59-1.32,1.72-1.98,3.74-1.98,6.06s.63,4.2,1.9,5.79c1.27,1.6,3.09,2.39,5.47,2.39h29.71c8.01,0,14.35,3,19,9,4.19,5.38,6.28,12.02,6.28,19.93s-2.09,14.5-6.28,19.93c-4.65,6-10.99,9-19,9h-54.06v-20.17h50.65c2.17,0,3.88-.89,5.12-2.68,1.24-1.78,1.86-3.84,1.86-6.17s-.6-4.3-1.78-5.93c-1.19-1.63-2.92-2.44-5.2-2.44h-29.78c-8.07,0-14.45-2.97-19.16-8.91-4.24-5.32-6.36-11.9-6.36-19.75s2.12-14.3,6.36-19.68c4.76-5.99,11.14-8.98,19.16-8.98h53.91v20.01Z"/><path class="cls-2" d="M2259.03,1157.46h-22.42l-24.74-72.91c-.16-.78-.7-1.16-1.63-1.16-.88,0-1.53.39-1.94,1.16l-24.2,72.91h-22.73c1.29-4.5,4.07-13.44,8.34-26.84,4.26-13.39,8.42-26.06,12.45-38.01,4.5-13.29,7.24-20.68,8.22-22.18,1.86-2.64,4.58-4.65,8.14-6.05s7.45-2.09,11.63-2.09,8.05.7,11.6,2.09c3.54,1.4,6.24,3.41,8.11,6.05,1.14,1.55,3.93,8.89,8.38,22.03,2.74,8.07,6.83,20.74,12.26,38.01,3.31,10.5,6.15,19.5,8.53,26.99Z"/><path class="cls-2" d="M2343.11,1158.09h-20.94v-44.44c0-7.96-1.68-14.71-5.05-20.24-3.83-6.31-9.17-9.46-16-9.46h-37.9v-20.55h37.85c11.95,0,21.41,3,28.39,9,5.48,4.71,9.36,11.12,11.63,19.24,1.5,5.33,2.25,11.12,2.25,17.37,0,1.45-.01,2.47-.04,3.06-.03.59-.09,1.12-.19,1.59v44.44Z"/><path class="cls-2" d="M2413.92,1157.46h-30.95c-11.12,0-19.88-4.83-26.29-14.49-5.79-8.68-8.69-19.38-8.69-32.09s2.95-23.92,8.84-33.02c6.52-10.07,15.23-15.11,26.14-15.11h30.95c10.91,0,19.62,5.04,26.14,15.11,5.89,9.09,8.84,20.12,8.84,33.09s-2.87,23.38-8.61,32.01c-6.41,9.66-15.2,14.49-26.37,14.49ZM2410.43,1136.91c4.96,0,8.95-2.89,11.95-8.67,2.74-5.27,4.11-11.62,4.11-19.05s-1.32-13.3-3.96-18.2c-2.95-5.47-6.98-8.21-12.1-8.21h-23.97c-5.12,0-9.15,2.74-12.1,8.21-2.64,4.91-3.96,10.97-3.96,18.2s1.34,13.84,4.03,19.05c3,5.78,7.01,8.67,12.02,8.67h23.97Z"/></g></svg>