<?xml version="1.0" encoding="UTF-8"?>
<svg id="Layer_2" xmlns="http://www.w3.org/2000/svg" version="1.1" viewBox="0 0 15 15">
  <!-- Generator: Adobe Illustrator 29.1.0, SVG Export Plug-In . SVG Version: 2.1.0 Build 142)  -->
  <defs>
    <style>
      .st0 {
        fill: #fff;
      }
    </style>
  </defs>
  <g id="Layer_1-2">
    <g>
      <path class="st0" d="M3.7,10.6v-.2c0-.2,0-.5.1-.7.1-.4.3-.7.5-1.1.4-.6.9-1,1.6-1.3.3-.1.6-.2.9-.3,0,0,0,0,0,0h0V2.8s0,0,0,0c-.6.6-1.2,1.2-1.8,1.8,0,0-.1.1-.2.2,0,0,0,0,0,0-.3-.3-.6-.6-.9-.9,0,0,0,0,0,0h0L7.5.4h0s0,0,0,0h0c1.2,1.2,2.4,2.4,3.6,3.6.8.8.8.8,0,0l-.8.8s0,0,0,0c-.7-.7-1.3-1.4-2-2h0s0,0,0,0v4.2s0,0,0,0c.6,0,1.1.3,1.6.7.4.3.8.7,1.1,1.2.2.4.4.8.4,1.2,0,.3,0,.5,0,.8,0,.5-.1.9-.3,1.4-.2.5-.5.9-.9,1.2-.4.4-.8.7-1.4.9-.3,0-.5.2-.8.2-.1,0-.2,0-.3,0h-.4c-.2,0-.3,0-.5,0-.4,0-.8-.2-1.1-.4-.4-.2-.7-.5-1-.8-.4-.4-.6-.9-.8-1.4,0-.2-.1-.5-.1-.7v-.2s0-.4,0-.4h0ZM5,10.8c0,1.4,1.1,2.5,2.5,2.5s2.5-1.2,2.5-2.5-1.1-2.5-2.5-2.5-2.5,1.1-2.5,2.5Z"/>
      <path class="st0" d="M7.5,12.3c-.8,0-1.5-.7-1.5-1.5s.7-1.5,1.5-1.5,1.5.7,1.5,1.5-.7,1.5-1.5,1.5Z"/>
    </g>
  </g>
</svg>