<?xml version="1.0" encoding="UTF-8"?>
<svg id="Layer_2" xmlns="http://www.w3.org/2000/svg" version="1.1" viewBox="0 0 15 14.3">
  <!-- Generator: Adobe Illustrator 29.1.0, SVG Export Plug-In . SVG Version: 2.1.0 Build 142)  -->
  <defs>
    <style>
      .st0 {
        fill: #fff;
      }
    </style>
  </defs>
  <g id="Layer_1-2">
    <path class="st0" d="M11.6,4.3c0,0,0,.1,0,.2,0,.2,0,.5-.1.7-.2.6-.4,1.1-.8,1.5-.3.4-.7.7-1.1.9-.4.2-.8.4-1.3.5,0,0,0,0,0,0v2s0,0,0,0h2.6s0,0,0,0v1.3q0,0,0,0h-2.6s0,0,0,0h0v2.6h0c0,0,0,0,0,0h-1.3s0,0,0,0v-2.6c0,0,0,0,0,0h-2.6s0,0,0,0v-1.3c0-.3,0-.3,0,0h2.6s0,0,0,0v-2q0,0,0,0c-.6-.1-1.2-.4-1.7-.8-.3-.3-.6-.6-.9-.9-.3-.4-.5-.9-.6-1.4,0-.2,0-.4,0-.7,0-.2,0-.4,0-.7,0-.6.3-1.2.6-1.7.2-.3.4-.6.6-.8.4-.3.8-.6,1.2-.8.3-.1.7-.2,1-.3.2,0,.3,0,.5,0h.3c.1,0,.3,0,.4,0,.3,0,.6.1.9.2.7.3,1.2.7,1.7,1.2.4.5.7,1,.8,1.6,0,.2.1.5.1.7v.2s0,.4,0,.4h0ZM10.2,4.1c0-1.5-1.2-2.7-2.7-2.7s-2.7,1.2-2.7,2.7,1.2,2.7,2.7,2.7,2.7-1.2,2.7-2.7h0Z"/>
  </g>
</svg>